HIERARCHY
ROOT Hips
{
	OFFSET 0.000000 0.000000 0.000000
	CHANNELS 6 Xposition Yposition Zposition Xrotation Yrotation Zrotation
	JOINT LeftUpLeg_virtual
	{
		OFFSET 0.000000 0.000000 0.000000
		CHANNELS 3 Xrotation Yrotation Zrotation
		JOINT LeftUpLeg
		{
			OFFSET 15.427100 -6.655098 0.678600
			CHANNELS 3 Xrotation Yrotation Zrotation
			JOINT LeftLeg
			{
				OFFSET 4.081073 -39.591068 13.024000
				CHANNELS 3 Xrotation Yrotation Zrotation
				JOINT LeftFoot
				{
					OFFSET -4.081074 -37.707932 -15.979700
					CHANNELS 3 Xrotation Yrotation Zrotation
					JOINT LeftToeBase
					{
						OFFSET 5.346399 -15.068900 20.645000
						CHANNELS 3 Xrotation Yrotation Zrotation
						JOINT LeftToe_End
						{
							OFFSET 2.754700 0.931300 11.300900
							CHANNELS 3 Xrotation Yrotation Zrotation
							End Site
							{
								OFFSET 0 0 0
							}
						}
					}
				}
			}
		}
	}
	JOINT RightUpLeg_virtual
	{
		OFFSET 0.000000 0.000000 0.000000
		CHANNELS 3 Xrotation Yrotation Zrotation
		JOINT RightUpLeg
		{
			OFFSET -15.569500 -6.655098 0.678600
			CHANNELS 3 Xrotation Yrotation Zrotation
			JOINT RightLeg
			{
				OFFSET -4.081825 -39.591045 13.023800
				CHANNELS 3 Xrotation Yrotation Zrotation
				JOINT RightFoot
				{
					OFFSET 4.081824 -37.707954 -15.979600
					CHANNELS 3 Xrotation Yrotation Zrotation
					JOINT RightToeBase
					{
						OFFSET -5.346400 -15.068900 20.645000
						CHANNELS 3 Xrotation Yrotation Zrotation
						JOINT RightToe_End
						{
							OFFSET -2.754700 0.931300 11.300900
							CHANNELS 3 Xrotation Yrotation Zrotation
							End Site
							{
								OFFSET 0 0 0
							}
						}
					}
				}
			}
		}
	}
	JOINT Spine_virtual
	{
		OFFSET 0.000000 0.000000 0.000000
		CHANNELS 3 Xrotation Yrotation Zrotation
		JOINT Spine
		{
			OFFSET -0.279200 12.230698 -2.892100
			CHANNELS 3 Xrotation Yrotation Zrotation
			JOINT Spine1
			{
				OFFSET -0.232667 10.192268 -1.242267
				CHANNELS 3 Xrotation Yrotation Zrotation
				JOINT Spine1_split
				{
					OFFSET -0.232667 10.192268 -1.242267
					CHANNELS 3 Xrotation Yrotation Zrotation
					JOINT Spine2
					{
						OFFSET -0.232667 10.192268 -1.242267
						CHANNELS 3 Xrotation Yrotation Zrotation
						JOINT Neck_virtual
						{
							OFFSET 0.000000 0.000000 0.000000
							CHANNELS 3 Xrotation Yrotation Zrotation
							JOINT Neck
							{
								OFFSET -0.418800 17.814194 8.416900
								CHANNELS 3 Xrotation Yrotation Zrotation
								JOINT Head
								{
									OFFSET 0.000000 7.031097 3.806800
									CHANNELS 3 Xrotation Yrotation Zrotation
									JOINT HeadTop_End
									{
										OFFSET 0.000000 24.646606 12.978600
										CHANNELS 3 Xrotation Yrotation Zrotation
										End Site
										{
											OFFSET 0 0 0
										}
									}
								}
							}
						}
						JOINT LeftShoulder_virtual
						{
							OFFSET 0.000000 0.000000 0.000000
							CHANNELS 3 Xrotation Yrotation Zrotation
							JOINT LeftShoulder
							{
								OFFSET 8.476499 7.247704 -3.868750
								CHANNELS 3 Xrotation Yrotation Zrotation
								JOINT LeftShoulder_split
								{
									OFFSET 8.476499 7.247704 -3.868750
									CHANNELS 3 Xrotation Yrotation Zrotation
									JOINT LeftArm
									{
										OFFSET 9.308998 -2.777710 0.208600
										CHANNELS 3 Xrotation Yrotation Zrotation
										JOINT LeftForeArm
										{
											OFFSET 29.972298 0.000000 0.000000
											CHANNELS 3 Xrotation Yrotation Zrotation
											JOINT LeftHand
											{
												OFFSET 26.026505 0.000000 0.000000
												CHANNELS 3 Xrotation Yrotation Zrotation
												End Site
												{
													OFFSET 0 0 0
												}
											}
										}
									}
								}
							}
						}
						JOINT RightShoulder_virtual
						{
							OFFSET 0.000000 0.000000 0.000000
							CHANNELS 3 Xrotation Yrotation Zrotation
							JOINT RightShoulder
							{
								OFFSET -7.570500 7.247704 -3.868750
								CHANNELS 3 Xrotation Yrotation Zrotation
								JOINT RightShoulder_split
								{
									OFFSET -7.570500 7.247704 -3.868750
									CHANNELS 3 Xrotation Yrotation Zrotation
									JOINT RightArm
									{
										OFFSET -9.308998 -2.777710 0.208500
										CHANNELS 3 Xrotation Yrotation Zrotation
										JOINT RightForeArm
										{
											OFFSET -29.972300 0.000000 0.000000
											CHANNELS 3 Xrotation Yrotation Zrotation
											JOINT RightHand
											{
												OFFSET -26.026505 0.000000 0.000000
												CHANNELS 3 Xrotation Yrotation Zrotation
												End Site
												{
													OFFSET 0 0 0
												}
											}
										}
									}
								}
							}
						}
					}
				}
			}
		}
	}
}
MOTION
Frames: 9
Frame Time: 0.03333333
-109.199905 70.632080 -2.766499 0.000000 0.000000 0.000000 16.167522 -61.755593 13.187359 -58.145831 -12.946134 15.429425 35.993646 -2.082305 -3.040678 20.380689 2.795435 -16.797455 -4.876499 -0.376382 0.086783 0.000000 0.000000 0.000000 14.832838 -60.918334 13.030247 -34.075821 -1.569459 -21.255166 78.800780 16.718689 -0.466385 -28.461793 0.494597 17.656539 -9.909377 1.589001 -8.966024 0.000000 0.000000 0.000000 17.719276 -55.974131 12.215812 14.060480 4.748610 -3.850746 16.495346 3.990548 -5.296566 0.656219 -1.952690 0.951870 0.000000 0.000000 0.000000 16.591810 4.193550 -5.162412 -10.273114 14.689121 7.521806 -11.995864 15.193315 -0.102060 0.000000 0.000000 0.000000 17.393019 3.572170 -4.834549 -0.529326 -9.218174 11.643622 -2.438008 -3.452444 -4.827798 -33.087110 17.993906 -22.064766 0.277818 -67.591422 -1.467328 0.000000 0.000000 0.000000 16.030866 3.814790 -4.861097 -1.813044 13.272495 16.846008 3.016774 3.750365 -0.347610 -43.915688 -2.185561 41.893355 -42.891023 71.179676 39.328666 0.000000 0.000000 0.000000 
-112.372429 70.340714 -2.710545 0.000000 0.000000 0.000000 11.201465 -62.260904 8.085543 -54.560538 -16.068840 18.172137 44.324188 -4.708253 -4.742033 14.040701 3.695136 -15.031430 -2.900545 -0.368401 -0.150798 0.000000 0.000000 0.000000 9.761723 -62.423776 8.211628 -38.268778 0.970235 -25.122103 79.079199 16.497622 0.436527 -22.805216 -0.571052 16.738053 -5.787116 1.139727 -6.426369 0.000000 0.000000 0.000000 15.746439 -58.310110 9.868844 14.418823 4.322548 -3.910311 16.051950 3.102289 -5.806360 0.816460 -1.741595 0.781696 0.000000 0.000000 0.000000 16.244965 3.113663 -5.738644 -12.722837 16.759577 6.592187 -12.951512 18.058257 0.530255 0.000000 0.000000 0.000000 17.103260 2.620255 -5.464731 -0.726945 -10.093905 10.080416 -3.641984 -4.213014 -5.940370 -35.548266 17.642891 -20.363033 -0.006299 -68.244136 -0.848187 0.000000 0.000000 0.000000 15.722074 2.824657 -5.511923 -2.255313 13.352641 15.268604 3.022496 4.622529 0.197630 -42.668581 -3.389431 43.531203 -41.615328 71.975994 37.982955 0.000000 0.000000 0.000000 
-115.545921 70.690567 -2.855335 0.000000 0.000000 0.000000 6.610685 -61.703171 3.597308 -49.986972 -18.805399 20.126346 49.089557 -6.355127 -5.561347 6.277988 5.110873 -13.187080 -0.017925 -0.226304 -1.105403 0.000000 0.000000 0.000000 5.374440 -62.555865 4.136648 -39.794099 4.287880 -28.142367 75.566699 15.055678 1.057005 -18.993955 -3.150422 15.410886 -0.776867 0.667425 -2.710275 0.000000 0.000000 0.000000 12.882821 -60.150539 7.210043 14.615823 3.810994 -3.847628 15.509567 2.384693 -6.143031 0.853418 -1.264814 0.673703 0.000000 0.000000 0.000000 15.697569 2.303555 -6.162665 -14.715701 18.893413 5.810142 -12.524623 21.147384 1.018229 0.000000 0.000000 0.000000 16.596313 1.902037 -5.900969 -1.272450 -11.175599 7.144916 -4.393567 -4.398865 -6.679982 -36.185912 16.847773 -21.025856 0.518643 -70.078158 0.341106 0.000000 0.000000 0.000000 15.336584 2.083911 -5.923294 -2.584163 13.487295 13.443595 3.238781 5.150090 0.701112 -41.324929 -4.873854 44.156056 -41.873127 73.683514 38.322405 0.000000 0.000000 0.000000 
-118.407257 70.933304 -3.159325 0.000000 0.000000 0.000000 3.362494 -60.941939 0.540303 -45.399728 -20.631703 21.550232 50.817191 -7.544582 -5.892568 -1.306478 5.555412 -11.809677 0.166700 -0.154929 -1.846461 0.000000 0.000000 0.000000 1.804655 -62.003501 0.915194 -38.906154 7.137299 -30.127896 69.895225 13.219893 0.874412 -17.536652 -5.947787 15.075525 4.109492 0.443711 0.964535 0.000000 0.000000 0.000000 9.576315 -61.335768 4.615061 14.559422 3.336785 -3.749595 14.876357 1.873871 -6.356757 0.646109 -1.201415 0.550655 0.000000 0.000000 0.000000 15.047223 1.798881 -6.416296 -16.099999 20.819364 5.095144 -10.835467 23.987146 1.295492 0.000000 0.000000 0.000000 15.908359 1.460259 -6.173755 -2.133385 -12.317397 3.208946 -4.673318 -3.770228 -6.337330 -34.313077 15.683105 -23.186648 1.523012 -71.865707 1.651014 0.000000 0.000000 0.000000 14.855699 1.619307 -6.105257 -2.766418 13.516751 11.643623 3.683798 5.195832 1.042925 -40.110300 -7.037923 43.893582 -47.473650 76.941678 44.145657 0.000000 0.000000 0.000000 
-120.927811 70.692680 -3.396503 0.000000 0.000000 0.000000 1.384127 -59.986908 -1.067699 -42.416479 -20.988377 22.763147 51.510261 -8.747150 -6.009876 -7.019392 4.186214 -10.617311 -1.995654 -0.171689 -1.987098 0.000000 0.000000 0.000000 -0.547029 -61.086657 -1.010100 -36.823486 8.469437 -31.218688 64.700756 11.912641 -0.112674 -17.901736 -7.861539 16.805735 7.103150 0.428840 3.430232 0.000000 0.000000 0.000000 6.417481 -61.464019 2.519097 14.244671 2.986325 -3.609038 14.197170 1.553177 -6.484342 0.332155 -1.587351 0.647989 0.000000 0.000000 0.000000 14.351143 1.554439 -6.553278 -17.055933 22.407358 4.457961 -8.321073 26.120392 1.388038 0.000000 0.000000 0.000000 15.175266 1.212135 -6.340267 -3.178346 -13.527344 -1.003867 -4.730010 -2.354215 -5.502621 -30.609336 13.809823 -25.870766 1.880507 -71.672911 2.104078 0.000000 0.000000 0.000000 14.309764 1.388412 -6.128034 -2.775717 13.384171 10.005717 4.167635 5.015934 1.008323 -39.599692 -9.835462 42.942981 -64.827347 80.764603 61.819298 0.000000 0.000000 0.000000 
-122.972092 69.881897 -3.685856 0.000000 0.000000 0.000000 0.206818 -59.325596 -1.687230 -41.814032 -20.069964 24.036371 53.085210 -10.519232 -6.066556 -9.245759 1.076512 -10.028042 -4.249233 -0.278553 -1.499924 0.000000 0.000000 0.000000 -2.197686 -60.162499 -2.194060 -34.567328 8.169092 -31.548432 61.590514 11.704607 -1.582878 -19.615533 -8.368031 20.396121 7.803871 0.399842 4.166409 0.000000 0.000000 0.000000 3.729525 -61.045239 1.036237 13.772505 2.849690 -3.370147 13.555082 1.343706 -6.578975 0.681025 -2.509356 0.715464 0.000000 0.000000 0.000000 13.744130 1.468820 -6.639410 -17.846250 23.540618 3.917617 -5.713339 27.441402 1.365367 0.000000 0.000000 0.000000 14.516394 1.042208 -6.456997 -4.297573 -14.570042 -4.994078 -4.599075 -0.895688 -4.304586 -26.037856 11.267549 -28.362678 1.201089 -68.819832 1.400224 0.000000 0.000000 0.000000 13.748862 1.315731 -6.071240 -2.679303 13.150325 8.623838 4.644431 4.990841 0.711436 -40.361268 -12.771782 41.472154 -98.158083 82.643445 95.461333 0.000000 0.000000 0.000000 
-124.538528 68.910355 -3.782799 0.000000 0.000000 0.000000 -0.330529 -59.084046 -1.675994 -43.172680 -18.397067 25.386526 55.801013 -12.441260 -6.308870 -8.658055 -2.286775 -9.360574 -4.702465 -0.281029 -0.907229 0.000000 0.000000 0.000000 -3.447427 -59.423875 -2.961090 -32.832320 6.558645 -31.502782 61.338056 12.099853 -2.909137 -22.026658 -7.761454 24.227188 6.732844 0.258828 3.445098 0.000000 0.000000 0.000000 2.007088 -60.033627 0.373074 13.226232 2.925861 -2.975178 13.005815 1.158688 -6.667820 0.984230 -3.276919 0.848726 0.000000 0.000000 0.000000 13.306638 1.378731 -6.695396 -18.718405 24.179882 3.499213 -3.503848 27.921629 1.331220 0.000000 0.000000 0.000000 14.017971 0.876731 -6.548002 -5.338746 -15.249557 -8.330786 -4.898280 0.004990 -2.986977 -21.211724 8.134787 -30.364197 0.691658 -63.847707 0.660961 0.000000 0.000000 0.000000 13.256356 1.270594 -6.006678 -2.582884 12.841813 7.470441 4.769724 5.098740 0.376273 -42.269073 -15.091615 39.564810 -125.930971 82.000704 123.496241 0.000000 0.000000 0.000000 
-125.824409 68.455383 -3.755936 0.000000 0.000000 0.000000 -0.635401 -58.721165 -1.357000 -44.933031 -16.131257 26.523341 58.302706 -13.466120 -6.621701 -7.068785 -4.292940 -7.954888 -2.254351 0.013276 -0.899695 0.000000 0.000000 0.000000 -3.974391 -58.887541 -3.003540 -31.927825 4.390132 -31.396068 62.667313 12.401161 -3.740021 -24.845353 -6.780188 26.743454 4.916458 0.071306 1.921330 0.000000 0.000000 0.000000 1.085313 -58.736649 0.309244 12.765811 3.096440 -2.425524 12.571488 0.917401 -6.729858 1.091251 -3.670804 1.023690 0.000000 0.000000 0.000000 13.036279 1.202809 -6.753014 -19.637479 24.420226 3.167582 -1.996410 27.523255 1.396205 0.000000 0.000000 0.000000 13.684243 0.638301 -6.600624 -6.184440 -15.443683 -10.711974 -5.437631 0.368547 -2.221741 -17.224760 4.809057 -32.174419 0.757893 -57.913085 0.381421 0.000000 0.000000 0.000000 12.863434 1.146473 -5.965607 -2.551447 12.431407 6.571481 4.546634 5.120856 0.253604 -44.812605 -16.335907 37.441434 -138.048956 80.986461 135.812602 0.000000 0.000000 0.000000 
-126.780922 68.863251 -3.754654 0.000000 0.000000 0.000000 -0.985577 -58.515897 -0.966620 -45.189023 -13.337566 27.289546 58.944334 -13.360391 -7.038229 -5.836850 -4.645925 -6.633485 0.632590 0.484676 -1.247728 0.000000 0.000000 0.000000 -4.138046 -58.579179 -2.631121 -31.494911 2.395365 -31.498449 63.726287 12.072810 -3.935102 -27.141941 -5.830324 27.234346 3.118702 -0.144777 0.435402 0.000000 0.000000 0.000000 0.597359 -57.433961 0.604201 12.509848 3.207565 -1.835926 12.233898 0.601942 -6.767410 1.225072 -3.698010 1.184688 0.000000 0.000000 0.000000 12.899503 0.905013 -6.773035 -20.422407 24.385531 2.821418 -1.149667 26.433039 1.515093 0.000000 0.000000 0.000000 13.457625 0.312955 -6.610992 -6.776815 -15.092230 -12.114847 -5.991739 0.332207 -1.868923 -14.532558 1.881368 -34.102383 1.536343 -52.321824 0.631219 0.000000 0.000000 0.000000 12.598633 0.900984 -5.950646 -2.670640 11.928761 5.920103 4.326261 4.900653 0.366200 -47.103075 -16.518737 35.373037 -141.914174 80.497235 139.846156 0.000000 0.000000 0.000000 
